<?xml version="1.0" encoding="utf-8"?>
<!-- Generator: Adobe Illustrator 26.5.0, SVG Export Plug-In . SVG Version: 6.00 Build 0)  -->
<svg version="1.1" id="Layer_1" xmlns="http://www.w3.org/2000/svg" xmlns:xlink="http://www.w3.org/1999/xlink" x="0px" y="0px"
	 viewBox="0 0 864 576" style="enable-background:new 0 0 864 576;" xml:space="preserve">
<style type="text/css">
	.st0{fill:#FFFFFF;}
</style>
<image style="overflow:visible;" width="1800" height="1200" xlink:href="../../../1506709524-cola-0247.jpg"  transform="matrix(0.48 0 0 0.48 0 0)">
</image>
<rect x="155.7" y="399.7" class="st0" width="590.8" height="135.7"/>
<g>
	<g>
		<path d="M177.4,413.6c0.6-2.2,1.7-5,2.4-6.2l1.5-0.2c-0.6,1.5-1.2,4.2-1.5,6.1L177.4,413.6z M181.3,413.6c0.6-2.2,1.7-5,2.4-6.2
			l1.5-0.2c-0.6,1.5-1.2,4.2-1.5,6.1L181.3,413.6z"/>
		<path d="M187.7,407.8c1-0.2,2.6-0.4,4.1-0.4c2.3,0,3.7,0.4,4.8,1.3c0.9,0.7,1.5,1.7,1.5,3.1c0,1.7-1.1,3.2-3,3.8v0.1
			c1.7,0.4,3.6,1.8,3.6,4.4c0,1.5-0.6,2.7-1.5,3.5c-1.2,1.1-3.2,1.6-6,1.6c-1.6,0-2.8-0.1-3.5-0.2V407.8z M190,415h2.1
			c2.4,0,3.8-1.3,3.8-3c0-2-1.5-2.9-3.8-2.9c-1.1,0-1.6,0.1-2,0.2V415z M190,423.4c0.5,0.1,1.1,0.1,1.9,0.1c2.4,0,4.5-0.9,4.5-3.4
			c0-2.4-2.1-3.4-4.5-3.4H190V423.4z"/>
		<path d="M203,419.2c0,3.1,2,4.4,4.3,4.4c1.6,0,2.6-0.3,3.5-0.6l0.4,1.6c-0.8,0.4-2.2,0.8-4.2,0.8c-3.9,0-6.2-2.6-6.2-6.3
			c0-3.8,2.2-6.8,5.9-6.8c4.1,0,5.2,3.6,5.2,5.9c0,0.5,0,0.8-0.1,1.1H203z M209.7,417.6c0-1.4-0.6-3.7-3.2-3.7
			c-2.3,0-3.3,2.1-3.5,3.7H209.7z"/>
		<path d="M221.7,425.1l-0.2-1.6h-0.1c-0.7,1-2,1.9-3.8,1.9c-2.5,0-3.8-1.8-3.8-3.6c0-3,2.7-4.7,7.6-4.7v-0.3c0-1-0.3-2.9-2.9-2.9
			c-1.2,0-2.4,0.3-3.3,0.9l-0.5-1.5c1-0.7,2.6-1.1,4.2-1.1c3.8,0,4.8,2.6,4.8,5.1v4.7c0,1.1,0,2.1,0.2,3H221.7z M221.4,418.7
			c-2.5-0.1-5.3,0.4-5.3,2.8c0,1.5,1,2.2,2.1,2.2c1.7,0,2.7-1,3.1-2.1c0.1-0.2,0.1-0.5,0.1-0.7V418.7z"/>
		<path d="M227.3,415.9c0-1.3,0-2.4-0.1-3.4h2l0.1,2.1h0.1c0.6-1.2,2.1-2.4,4.2-2.4c1.7,0,4.4,1,4.4,5.4v7.5h-2.3v-7.2
			c0-2-0.8-3.7-2.9-3.7c-1.5,0-2.7,1.1-3.1,2.3c-0.1,0.3-0.2,0.7-0.2,1.1v7.6h-2.3V415.9z"/>
		<path d="M241.4,422.8c0.7,0.4,1.9,0.9,3,0.9c1.7,0,2.4-0.8,2.4-1.9c0-1.1-0.7-1.7-2.3-2.3c-2.3-0.8-3.3-2.1-3.3-3.6
			c0-2,1.6-3.7,4.4-3.7c1.3,0,2.4,0.3,3.1,0.8l-0.6,1.7c-0.5-0.3-1.4-0.7-2.6-0.7c-1.3,0-2.1,0.8-2.1,1.7c0,1,0.7,1.5,2.4,2.1
			c2.2,0.8,3.3,1.9,3.3,3.8c0,2.2-1.7,3.8-4.7,3.8c-1.4,0-2.6-0.4-3.5-0.9L241.4,422.8z"/>
		<path d="M258.4,412.5l1.7,6.4c0.4,1.4,0.7,2.7,0.9,4h0.1c0.3-1.3,0.7-2.6,1.1-4l2.1-6.4h1.9l2,6.3c0.4,1.5,0.8,2.8,1.1,4.1h0.1
			c0.2-1.3,0.6-2.6,1-4.1l1.8-6.3h2.3l-4.1,12.6h-2.1l-1.9-6c-0.5-1.4-0.8-2.7-1.1-4.1h-0.1c-0.3,1.5-0.7,2.8-1.2,4.2l-2,6h-2.1
			l-3.8-12.6H258.4z"/>
		<path d="M283.6,425.1l-0.2-1.6h-0.1c-0.7,1-2,1.9-3.8,1.9c-2.5,0-3.8-1.8-3.8-3.6c0-3,2.7-4.7,7.6-4.7v-0.3c0-1-0.3-2.9-2.9-2.9
			c-1.2,0-2.4,0.3-3.3,0.9l-0.5-1.5c1-0.7,2.6-1.1,4.2-1.1c3.8,0,4.8,2.6,4.8,5.1v4.7c0,1.1,0,2.1,0.2,3H283.6z M283.3,418.7
			c-2.5-0.1-5.3,0.4-5.3,2.8c0,1.5,1,2.2,2.1,2.2c1.7,0,2.7-1,3.1-2.1c0.1-0.2,0.1-0.5,0.1-0.7V418.7z"/>
		<path d="M288.9,422.8c0.7,0.4,1.9,0.9,3,0.9c1.7,0,2.4-0.8,2.4-1.9c0-1.1-0.7-1.7-2.3-2.3c-2.3-0.8-3.3-2.1-3.3-3.6
			c0-2,1.6-3.7,4.4-3.7c1.3,0,2.4,0.3,3.1,0.8l-0.6,1.7c-0.5-0.3-1.4-0.7-2.6-0.7c-1.3,0-2.1,0.8-2.1,1.7c0,1,0.7,1.5,2.4,2.1
			c2.2,0.8,3.3,1.9,3.3,3.8c0,2.2-1.7,3.8-4.7,3.8c-1.4,0-2.6-0.4-3.5-0.9L288.9,422.8z"/>
		<path d="M299.5,415.9c0-1.3,0-2.4-0.1-3.4h2l0.1,2.1h0.1c0.6-1.2,2.1-2.4,4.2-2.4c1.7,0,4.4,1,4.4,5.4v7.5h-2.3v-7.2
			c0-2-0.8-3.7-2.9-3.7c-1.5,0-2.7,1.1-3.1,2.3c-0.1,0.3-0.2,0.7-0.2,1.1v7.6h-2.3V415.9z"/>
		<path d="M316.8,407.3c-0.6,2.2-1.7,5-2.4,6.2l-1.5,0.2c0.6-1.5,1.2-4.2,1.5-6.1L316.8,407.3z"/>
		<path d="M322,408.9v3.6h3.3v1.7H322v6.8c0,1.6,0.5,2.5,1.7,2.5c0.6,0,1-0.1,1.3-0.2l0.1,1.7c-0.4,0.2-1.2,0.3-2,0.3
			c-1.1,0-1.9-0.3-2.5-1c-0.6-0.7-0.9-1.8-0.9-3.3v-6.9h-1.9v-1.7h1.9v-3L322,408.9z"/>
		<path d="M334.7,419.2c0,3.1,2,4.4,4.3,4.4c1.6,0,2.6-0.3,3.5-0.6l0.4,1.6c-0.8,0.4-2.2,0.8-4.2,0.8c-3.9,0-6.2-2.6-6.2-6.3
			c0-3.8,2.2-6.8,5.9-6.8c4.1,0,5.2,3.6,5.2,5.9c0,0.5,0,0.8-0.1,1.1H334.7z M341.4,417.6c0-1.4-0.6-3.7-3.2-3.7
			c-2.3,0-3.3,2.1-3.5,3.7H341.4z"/>
		<path d="M347.3,412.5l2.5,7c0.4,1.2,0.7,2.2,1,3.2h0.1c0.3-1,0.6-2.1,1.1-3.2l2.5-7h2.4l-4.9,12.6h-2.2l-4.8-12.6H347.3z"/>
		<path d="M360.2,419.2c0,3.1,2,4.4,4.3,4.4c1.6,0,2.6-0.3,3.5-0.6l0.4,1.6c-0.8,0.4-2.2,0.8-4.2,0.8c-3.9,0-6.2-2.6-6.2-6.3
			c0-3.8,2.2-6.8,5.9-6.8c4.1,0,5.2,3.6,5.2,5.9c0,0.5,0,0.8-0.1,1.1H360.2z M366.9,417.6c0-1.4-0.6-3.7-3.2-3.7
			c-2.3,0-3.3,2.1-3.5,3.7H366.9z"/>
		<path d="M372,415.9c0-1.3,0-2.4-0.1-3.4h2l0.1,2.1h0.1c0.6-1.2,2.1-2.4,4.2-2.4c1.7,0,4.4,1,4.4,5.4v7.5h-2.3v-7.2
			c0-2-0.8-3.7-2.9-3.7c-1.5,0-2.7,1.1-3.1,2.3c-0.1,0.3-0.2,0.7-0.2,1.1v7.6H372V415.9z"/>
		<path d="M398.9,425.1l-0.2-1.6h-0.1c-0.7,1-2,1.9-3.8,1.9c-2.5,0-3.8-1.8-3.8-3.6c0-3,2.7-4.7,7.6-4.7v-0.3c0-1-0.3-2.9-2.9-2.9
			c-1.2,0-2.4,0.3-3.3,0.9l-0.5-1.5c1-0.7,2.6-1.1,4.2-1.1c3.8,0,4.8,2.6,4.8,5.1v4.7c0,1.1,0,2.1,0.2,3H398.9z M398.5,418.7
			c-2.5-0.1-5.3,0.4-5.3,2.8c0,1.5,1,2.2,2.1,2.2c1.7,0,2.7-1,3.1-2.1c0.1-0.2,0.1-0.5,0.1-0.7V418.7z"/>
		<path d="M404.3,425.1c0.1-0.9,0.1-2.1,0.1-3.2v-15.2h2.3v7.9h0.1c0.8-1.4,2.3-2.3,4.3-2.3c3.1,0,5.3,2.6,5.3,6.4
			c0,4.5-2.9,6.7-5.7,6.7c-1.8,0-3.3-0.7-4.2-2.4h-0.1l-0.1,2.1H404.3z M406.7,420c0,0.3,0,0.6,0.1,0.8c0.4,1.6,1.8,2.7,3.4,2.7
			c2.4,0,3.8-1.9,3.8-4.8c0-2.5-1.3-4.7-3.8-4.7c-1.5,0-3,1.1-3.5,2.8c-0.1,0.3-0.1,0.6-0.1,1V420z"/>
		<path d="M419.2,406.6h2.3v18.5h-2.3V406.6z"/>
		<path d="M426.6,419.2c0,3.1,2,4.4,4.3,4.4c1.6,0,2.6-0.3,3.5-0.6l0.4,1.6c-0.8,0.4-2.2,0.8-4.2,0.8c-3.9,0-6.2-2.6-6.2-6.3
			c0-3.8,2.2-6.8,5.9-6.8c4.1,0,5.2,3.6,5.2,5.9c0,0.5,0,0.8-0.1,1.1H426.6z M433.3,417.6c0-1.4-0.6-3.7-3.2-3.7
			c-2.3,0-3.3,2.1-3.5,3.7H433.3z"/>
		<path d="M446.7,408.9v3.6h3.3v1.7h-3.3v6.8c0,1.6,0.5,2.5,1.7,2.5c0.6,0,1-0.1,1.3-0.2l0.1,1.7c-0.4,0.2-1.2,0.3-2,0.3
			c-1.1,0-1.9-0.3-2.5-1c-0.6-0.7-0.9-1.8-0.9-3.3v-6.9h-1.9v-1.7h1.9v-3L446.7,408.9z"/>
		<path d="M463.9,418.7c0,4.7-3.2,6.7-6.3,6.7c-3.4,0-6-2.5-6-6.5c0-4.2,2.8-6.7,6.2-6.7C461.5,412.2,463.9,414.8,463.9,418.7z
			 M453.9,418.8c0,2.8,1.6,4.8,3.8,4.8c2.2,0,3.8-2,3.8-4.9c0-2.1-1.1-4.8-3.8-4.8C455.1,413.9,453.9,416.4,453.9,418.8z"/>
		<path d="M472.2,425.1c0.1-0.9,0.1-2.1,0.1-3.2v-15.2h2.3v7.9h0.1c0.8-1.4,2.3-2.3,4.3-2.3c3.1,0,5.3,2.6,5.3,6.4
			c0,4.5-2.9,6.7-5.7,6.7c-1.8,0-3.3-0.7-4.2-2.4h-0.1l-0.1,2.1H472.2z M474.6,420c0,0.3,0,0.6,0.1,0.8c0.4,1.6,1.8,2.7,3.4,2.7
			c2.4,0,3.8-1.9,3.8-4.8c0-2.5-1.3-4.7-3.8-4.7c-1.5,0-3,1.1-3.5,2.8c-0.1,0.3-0.1,0.6-0.1,1V420z"/>
		<path d="M488.4,419.2c0,3.1,2,4.4,4.3,4.4c1.6,0,2.6-0.3,3.5-0.6l0.4,1.6c-0.8,0.4-2.2,0.8-4.2,0.8c-3.9,0-6.2-2.6-6.2-6.3
			c0-3.8,2.2-6.8,5.9-6.8c4.1,0,5.2,3.6,5.2,5.9c0,0.5,0,0.8-0.1,1.1H488.4z M495.1,417.6c0-1.4-0.6-3.7-3.2-3.7
			c-2.3,0-3.3,2.1-3.5,3.7H495.1z"/>
		<path d="M508.2,408.9c0,0.8-0.5,1.4-1.5,1.4c-0.8,0-1.4-0.6-1.4-1.4c0-0.8,0.6-1.4,1.4-1.4C507.6,407.5,508.2,408.2,508.2,408.9z
			 M505.6,425.1v-12.6h2.3v12.6H505.6z"/>
		<path d="M511.7,415.9c0-1.3,0-2.4-0.1-3.4h2l0.1,2.1h0.1c0.6-1.2,2.1-2.4,4.2-2.4c1.7,0,4.4,1,4.4,5.4v7.5h-2.3v-7.2
			c0-2-0.8-3.7-2.9-3.7c-1.5,0-2.7,1.1-3.1,2.3c-0.1,0.3-0.2,0.7-0.2,1.1v7.6h-2.3V415.9z"/>
		<path d="M534.4,408.9v3.6h3.3v1.7h-3.3v6.8c0,1.6,0.5,2.5,1.7,2.5c0.6,0,1-0.1,1.3-0.2l0.1,1.7c-0.4,0.2-1.2,0.3-2,0.3
			c-1.1,0-1.9-0.3-2.5-1c-0.6-0.7-0.9-1.8-0.9-3.3v-6.9h-1.9v-1.7h1.9v-3L534.4,408.9z"/>
		<path d="M540.3,406.6h2.3v7.9h0.1c0.4-0.6,0.9-1.2,1.6-1.6c0.7-0.4,1.5-0.6,2.3-0.6c1.7,0,4.4,1,4.4,5.4v7.5h-2.3v-7.2
			c0-2-0.8-3.7-2.9-3.7c-1.5,0-2.6,1-3.1,2.3c-0.1,0.3-0.2,0.7-0.2,1.1v7.6h-2.3V406.6z"/>
		<path d="M556,419.2c0,3.1,2,4.4,4.3,4.4c1.6,0,2.6-0.3,3.5-0.6l0.4,1.6c-0.8,0.4-2.2,0.8-4.2,0.8c-3.9,0-6.2-2.6-6.2-6.3
			c0-3.8,2.2-6.8,5.9-6.8c4.1,0,5.2,3.6,5.2,5.9c0,0.5,0,0.8-0.1,1.1H556z M562.7,417.6c0-1.4-0.6-3.7-3.2-3.7
			c-2.3,0-3.3,2.1-3.5,3.7H562.7z"/>
		<path d="M572.9,422.8c0.7,0.4,1.9,0.9,3,0.9c1.7,0,2.4-0.8,2.4-1.9c0-1.1-0.7-1.7-2.3-2.3c-2.3-0.8-3.3-2.1-3.3-3.6
			c0-2,1.6-3.7,4.3-3.7c1.3,0,2.4,0.3,3.1,0.8l-0.6,1.7c-0.5-0.3-1.4-0.7-2.6-0.7c-1.3,0-2.1,0.8-2.1,1.7c0,1,0.7,1.5,2.4,2.1
			c2.2,0.8,3.3,1.9,3.3,3.8c0,2.2-1.7,3.8-4.7,3.8c-1.4,0-2.6-0.4-3.5-0.9L572.9,422.8z"/>
		<path d="M590.5,425.1l-0.2-1.6h-0.1c-0.7,1-2,1.9-3.8,1.9c-2.5,0-3.8-1.8-3.8-3.6c0-3,2.7-4.7,7.6-4.7v-0.3c0-1-0.3-2.9-2.9-2.9
			c-1.2,0-2.4,0.3-3.3,0.9l-0.5-1.5c1-0.7,2.6-1.1,4.2-1.1c3.8,0,4.8,2.6,4.8,5.1v4.7c0,1.1,0,2.1,0.2,3H590.5z M590.1,418.7
			c-2.5-0.1-5.3,0.4-5.3,2.8c0,1.5,1,2.2,2.1,2.2c1.7,0,2.7-1,3.1-2.1c0.1-0.2,0.1-0.5,0.1-0.7V418.7z"/>
		<path d="M596.1,415.9c0-1.3,0-2.4-0.1-3.4h2l0.1,2h0.1c0.7-1.2,1.9-2.3,4-2.3c1.7,0,3,1,3.5,2.5h0.1c0.4-0.7,0.9-1.3,1.4-1.6
			c0.8-0.6,1.6-0.9,2.8-0.9c1.7,0,4.2,1.1,4.2,5.5v7.4h-2.2V418c0-2.4-0.9-3.9-2.7-3.9c-1.3,0-2.3,1-2.7,2.1
			c-0.1,0.3-0.2,0.7-0.2,1.1v7.8h-2.2v-7.5c0-2-0.9-3.4-2.6-3.4c-1.4,0-2.5,1.1-2.9,2.3c-0.1,0.3-0.2,0.7-0.2,1.1v7.6h-2.2V415.9z"
			/>
		<path d="M619,419.2c0,3.1,2,4.4,4.3,4.4c1.6,0,2.6-0.3,3.5-0.6l0.4,1.6c-0.8,0.4-2.2,0.8-4.2,0.8c-3.9,0-6.2-2.6-6.2-6.3
			c0-3.8,2.2-6.8,5.9-6.8c4.1,0,5.2,3.6,5.2,5.9c0,0.5,0,0.8-0.1,1.1H619z M625.7,417.6c0-1.4-0.6-3.7-3.2-3.7
			c-2.3,0-3.3,2.1-3.5,3.7H625.7z"/>
		<path d="M636.3,416.6c0-1.6,0-2.9-0.1-4.1h2l0.1,2.1h0.1c0.9-1.5,2.4-2.4,4.5-2.4c3,0,5.3,2.6,5.3,6.4c0,4.5-2.8,6.8-5.7,6.8
			c-1.7,0-3.1-0.7-3.9-2h-0.1v6.8h-2.3V416.6z M638.5,420c0,0.3,0,0.6,0.1,0.9c0.4,1.6,1.8,2.7,3.4,2.7c2.4,0,3.8-2,3.8-4.9
			c0-2.5-1.3-4.7-3.7-4.7c-1.6,0-3,1.1-3.5,2.8c-0.1,0.3-0.1,0.6-0.1,0.9V420z"/>
		<path d="M658,425.1l-0.2-1.6h-0.1c-0.7,1-2,1.9-3.8,1.9c-2.5,0-3.8-1.8-3.8-3.6c0-3,2.7-4.7,7.6-4.7v-0.3c0-1-0.3-2.9-2.9-2.9
			c-1.2,0-2.4,0.3-3.3,0.9l-0.5-1.5c1-0.7,2.6-1.1,4.2-1.1c3.8,0,4.8,2.6,4.8,5.1v4.7c0,1.1,0,2.1,0.2,3H658z M657.7,418.7
			c-2.5-0.1-5.3,0.4-5.3,2.8c0,1.5,1,2.2,2.1,2.2c1.7,0,2.7-1,3.1-2.1c0.1-0.2,0.1-0.5,0.1-0.7V418.7z"/>
		<path d="M663.6,416.4c0-1.5,0-2.8-0.1-3.9h2l0.1,2.5h0.1c0.6-1.7,2-2.8,3.5-2.8c0.2,0,0.4,0,0.6,0.1v2.2c-0.2,0-0.5-0.1-0.8-0.1
			c-1.6,0-2.8,1.2-3.1,2.9c-0.1,0.3-0.1,0.7-0.1,1.1v6.7h-2.3V416.4z"/>
		<path d="M674.4,418.3L674.4,418.3c0.4-0.4,0.8-1,1.1-1.4l3.7-4.3h2.7l-4.9,5.2l5.5,7.4h-2.8l-4.3-6l-1.2,1.3v4.7h-2.3v-18.5h2.3
			V418.3z"/>
		<path d="M696.8,425.1l-0.2-1.6h-0.1c-0.7,1-2,1.9-3.8,1.9c-2.5,0-3.8-1.8-3.8-3.6c0-3,2.7-4.7,7.6-4.7v-0.3c0-1-0.3-2.9-2.9-2.9
			c-1.2,0-2.4,0.3-3.3,0.9l-0.5-1.5c1-0.7,2.6-1.1,4.2-1.1c3.8,0,4.8,2.6,4.8,5.1v4.7c0,1.1,0,2.1,0.2,3H696.8z M696.4,418.7
			c-2.5-0.1-5.3,0.4-5.3,2.8c0,1.5,1,2.2,2.1,2.2c1.7,0,2.7-1,3.1-2.1c0.1-0.2,0.1-0.5,0.1-0.7V418.7z"/>
		<path d="M702,422.8c0.7,0.4,1.9,0.9,3,0.9c1.7,0,2.4-0.8,2.4-1.9c0-1.1-0.7-1.7-2.3-2.3c-2.3-0.8-3.3-2.1-3.3-3.6
			c0-2,1.6-3.7,4.3-3.7c1.3,0,2.4,0.3,3.1,0.8l-0.6,1.7c-0.5-0.3-1.4-0.7-2.6-0.7c-1.3,0-2.1,0.8-2.1,1.7c0,1,0.7,1.5,2.4,2.1
			c2.2,0.8,3.3,1.9,3.3,3.8c0,2.2-1.7,3.8-4.7,3.8c-1.4,0-2.6-0.4-3.5-0.9L702,422.8z"/>
		<path d="M172.9,461.1l-0.2-1.6h-0.1c-0.7,1-2,1.9-3.8,1.9c-2.5,0-3.8-1.8-3.8-3.6c0-3,2.7-4.7,7.6-4.7v-0.3c0-1-0.3-2.9-2.9-2.9
			c-1.2,0-2.4,0.3-3.3,0.9l-0.5-1.5c1-0.7,2.6-1.1,4.2-1.1c3.8,0,4.8,2.6,4.8,5.1v4.7c0,1.1,0,2.1,0.2,3H172.9z M172.5,454.7
			c-2.5-0.1-5.3,0.4-5.3,2.8c0,1.5,1,2.2,2.1,2.2c1.7,0,2.7-1,3.1-2.1c0.1-0.2,0.1-0.5,0.1-0.7V454.7z"/>
		<path d="M178.4,451.9c0-1.3,0-2.4-0.1-3.4h2l0.1,2.1h0.1c0.6-1.2,2.1-2.4,4.2-2.4c1.7,0,4.4,1,4.4,5.4v7.5h-2.3v-7.2
			c0-2-0.8-3.7-2.9-3.7c-1.5,0-2.7,1.1-3.1,2.3c-0.1,0.3-0.2,0.7-0.2,1.1v7.6h-2.3V451.9z"/>
		<path d="M204.2,454.7c0,4.7-3.2,6.7-6.3,6.7c-3.4,0-6-2.5-6-6.5c0-4.2,2.8-6.7,6.2-6.7C201.8,448.2,204.2,450.8,204.2,454.7z
			 M194.3,454.8c0,2.8,1.6,4.8,3.8,4.8c2.2,0,3.8-2,3.8-4.9c0-2.1-1.1-4.8-3.8-4.8C195.4,449.9,194.3,452.4,194.3,454.8z"/>
		<path d="M209.9,444.9v3.6h3.3v1.7h-3.3v6.8c0,1.6,0.5,2.5,1.7,2.5c0.6,0,1-0.1,1.3-0.2l0.1,1.7c-0.4,0.2-1.2,0.3-2,0.3
			c-1.1,0-1.9-0.3-2.5-1c-0.6-0.7-0.9-1.8-0.9-3.3v-6.9h-1.9v-1.7h1.9v-3L209.9,444.9z"/>
		<path d="M215.7,442.6h2.3v7.9h0.1c0.4-0.6,0.9-1.2,1.6-1.6c0.7-0.4,1.5-0.6,2.3-0.6c1.7,0,4.4,1,4.4,5.4v7.5h-2.3v-7.2
			c0-2-0.8-3.7-2.9-3.7c-1.5,0-2.6,1-3.1,2.3c-0.1,0.3-0.2,0.7-0.2,1.1v7.6h-2.3V442.6z"/>
		<path d="M231.4,455.2c0,3.1,2,4.4,4.3,4.4c1.6,0,2.6-0.3,3.5-0.6l0.4,1.6c-0.8,0.4-2.2,0.8-4.2,0.8c-3.9,0-6.2-2.6-6.2-6.3
			c0-3.8,2.2-6.8,5.9-6.8c4.1,0,5.2,3.6,5.2,5.9c0,0.5,0,0.8-0.1,1.1H231.4z M238.1,453.6c0-1.4-0.6-3.7-3.2-3.7
			c-2.3,0-3.3,2.1-3.5,3.7H238.1z"/>
		<path d="M243.2,452.4c0-1.5,0-2.8-0.1-3.9h2l0.1,2.5h0.1c0.6-1.7,2-2.8,3.5-2.8c0.2,0,0.4,0,0.6,0.1v2.2c-0.2,0-0.5-0.1-0.8-0.1
			c-1.6,0-2.8,1.2-3.1,2.9c-0.1,0.3-0.1,0.7-0.1,1.1v6.7h-2.3V452.4z"/>
		<path d="M268,442.6v15.2c0,1.1,0,2.4,0.1,3.2h-2l-0.1-2.2h-0.1c-0.7,1.4-2.2,2.5-4.3,2.5c-3,0-5.4-2.6-5.4-6.4
			c0-4.2,2.6-6.8,5.6-6.8c1.9,0,3.2,0.9,3.8,1.9h0.1v-7.5H268z M265.8,453.6c0-0.3,0-0.7-0.1-1c-0.4-1.4-1.6-2.6-3.3-2.6
			c-2.4,0-3.8,2.1-3.8,4.8c0,2.6,1.3,4.7,3.7,4.7c1.5,0,2.9-1,3.3-2.7c0.1-0.3,0.1-0.6,0.1-1V453.6z"/>
		<path d="M283.2,454.7c0,4.7-3.2,6.7-6.3,6.7c-3.4,0-6-2.5-6-6.5c0-4.2,2.8-6.7,6.2-6.7C280.8,448.2,283.2,450.8,283.2,454.7z
			 M273.3,454.8c0,2.8,1.6,4.8,3.8,4.8c2.2,0,3.8-2,3.8-4.9c0-2.1-1.1-4.8-3.8-4.8C274.4,449.9,273.3,452.4,273.3,454.8z"/>
		<path d="M297,448.5c-0.1,0.9-0.1,1.9-0.1,3.4v7.3c0,2.9-0.6,4.7-1.8,5.8c-1.2,1.1-3,1.5-4.6,1.5c-1.5,0-3.2-0.4-4.2-1l0.6-1.8
			c0.8,0.5,2.1,1,3.7,1c2.3,0,4-1.2,4-4.4v-1.4h-0.1c-0.7,1.2-2.1,2.1-4,2.1c-3.1,0-5.4-2.7-5.4-6.2c0-4.3,2.8-6.7,5.7-6.7
			c2.2,0,3.4,1.1,3.9,2.2h0.1l0.1-1.9H297z M294.6,453.4c0-0.4,0-0.7-0.1-1c-0.4-1.3-1.5-2.4-3.2-2.4c-2.2,0-3.7,1.8-3.7,4.8
			c0,2.5,1.3,4.5,3.7,4.5c1.4,0,2.7-0.9,3.2-2.4c0.1-0.4,0.2-0.8,0.2-1.2V453.4z"/>
		<path d="M306.1,461.1c0.1-0.9,0.1-2.1,0.1-3.2v-15.2h2.3v7.9h0.1c0.8-1.4,2.3-2.3,4.3-2.3c3.1,0,5.3,2.6,5.3,6.4
			c0,4.5-2.9,6.7-5.7,6.7c-1.8,0-3.3-0.7-4.2-2.4h-0.1l-0.1,2.1H306.1z M308.4,456c0,0.3,0,0.6,0.1,0.8c0.4,1.6,1.8,2.7,3.4,2.7
			c2.4,0,3.8-1.9,3.8-4.8c0-2.5-1.3-4.7-3.8-4.7c-1.5,0-3,1.1-3.5,2.8c-0.1,0.3-0.1,0.6-0.1,1V456z"/>
		<path d="M322.2,455.2c0,3.1,2,4.4,4.3,4.4c1.6,0,2.6-0.3,3.5-0.6l0.4,1.6c-0.8,0.4-2.2,0.8-4.2,0.8c-3.9,0-6.2-2.6-6.2-6.3
			c0-3.8,2.2-6.8,5.9-6.8c4.1,0,5.2,3.6,5.2,5.9c0,0.5,0,0.8-0.1,1.1H322.2z M328.9,453.6c0-1.4-0.6-3.7-3.2-3.7
			c-2.3,0-3.3,2.1-3.5,3.7H328.9z"/>
		<path d="M334.2,461.1v-10.8h-1.8v-1.7h1.8v-0.6c0-1.8,0.4-3.4,1.5-4.4c0.9-0.8,2-1.2,3.1-1.2c0.8,0,1.5,0.2,2,0.4l-0.3,1.8
			c-0.3-0.2-0.8-0.3-1.5-0.3c-1.9,0-2.4,1.7-2.4,3.7v0.7h3v1.7h-3v10.8H334.2z"/>
		<path d="M353,454.7c0,4.7-3.2,6.7-6.3,6.7c-3.4,0-6-2.5-6-6.5c0-4.2,2.8-6.7,6.2-6.7C350.5,448.2,353,450.8,353,454.7z M343,454.8
			c0,2.8,1.6,4.8,3.8,4.8c2.2,0,3.8-2,3.8-4.9c0-2.1-1.1-4.8-3.8-4.8C344.2,449.9,343,452.4,343,454.8z"/>
		<path d="M355.9,452.4c0-1.5,0-2.8-0.1-3.9h2l0.1,2.5h0.1c0.6-1.7,2-2.8,3.5-2.8c0.2,0,0.4,0,0.6,0.1v2.2c-0.2,0-0.5-0.1-0.8-0.1
			c-1.6,0-2.8,1.2-3.1,2.9c-0.1,0.3-0.1,0.7-0.1,1.1v6.7h-2.3V452.4z"/>
		<path d="M365.6,455.2c0,3.1,2,4.4,4.3,4.4c1.6,0,2.6-0.3,3.5-0.6l0.4,1.6c-0.8,0.4-2.2,0.8-4.2,0.8c-3.9,0-6.2-2.6-6.2-6.3
			c0-3.8,2.2-6.8,5.9-6.8c4.1,0,5.2,3.6,5.2,5.9c0,0.5,0,0.8-0.1,1.1H365.6z M372.3,453.6c0-1.4-0.6-3.7-3.2-3.7
			c-2.3,0-3.3,2.1-3.5,3.7H372.3z"/>
		<path d="M382.9,442.6h2.3v7.9h0.1c0.4-0.6,0.9-1.2,1.6-1.6c0.7-0.4,1.5-0.6,2.3-0.6c1.7,0,4.4,1,4.4,5.4v7.5h-2.3v-7.2
			c0-2-0.8-3.7-2.9-3.7c-1.5,0-2.6,1-3.1,2.3c-0.1,0.3-0.2,0.7-0.2,1.1v7.6h-2.3V442.6z"/>
		<path d="M399.9,444.9c0,0.8-0.5,1.4-1.5,1.4c-0.8,0-1.4-0.6-1.4-1.4c0-0.8,0.6-1.4,1.4-1.4C399.3,443.5,399.9,444.2,399.9,444.9z
			 M397.3,461.1v-12.6h2.3v12.6H397.3z"/>
		<path d="M403.1,458.8c0.7,0.4,1.9,0.9,3,0.9c1.7,0,2.4-0.8,2.4-1.9c0-1.1-0.7-1.7-2.3-2.3c-2.3-0.8-3.3-2.1-3.3-3.6
			c0-2,1.6-3.7,4.4-3.7c1.3,0,2.4,0.3,3.1,0.8l-0.6,1.7c-0.5-0.3-1.4-0.7-2.6-0.7c-1.3,0-2.1,0.8-2.1,1.7c0,1,0.7,1.5,2.4,2.1
			c2.2,0.8,3.3,1.9,3.3,3.8c0,2.2-1.7,3.8-4.7,3.8c-1.4,0-2.6-0.4-3.5-0.9L403.1,458.8z"/>
		<path d="M418.9,458.8c0.7,0.4,1.9,0.9,3,0.9c1.7,0,2.4-0.8,2.4-1.9c0-1.1-0.7-1.7-2.3-2.3c-2.3-0.8-3.3-2.1-3.3-3.6
			c0-2,1.6-3.7,4.4-3.7c1.3,0,2.4,0.3,3.1,0.8l-0.6,1.7c-0.5-0.3-1.4-0.7-2.6-0.7c-1.3,0-2.1,0.8-2.1,1.7c0,1,0.7,1.5,2.4,2.1
			c2.2,0.8,3.3,1.9,3.3,3.8c0,2.2-1.7,3.8-4.7,3.8c-1.4,0-2.6-0.4-3.5-0.9L418.9,458.8z"/>
		<path d="M432.3,444.9v3.6h3.3v1.7h-3.3v6.8c0,1.6,0.5,2.5,1.7,2.5c0.6,0,1-0.1,1.3-0.2l0.1,1.7c-0.4,0.2-1.2,0.3-2,0.3
			c-1.1,0-1.9-0.3-2.5-1c-0.6-0.7-0.9-1.8-0.9-3.3v-6.9h-1.9v-1.7h1.9v-3L432.3,444.9z"/>
		<path d="M445.1,461.1l-0.2-1.6h-0.1c-0.7,1-2,1.9-3.8,1.9c-2.5,0-3.8-1.8-3.8-3.6c0-3,2.7-4.7,7.6-4.7v-0.3c0-1-0.3-2.9-2.9-2.9
			c-1.2,0-2.4,0.3-3.3,0.9l-0.5-1.5c1-0.7,2.6-1.1,4.2-1.1c3.8,0,4.8,2.6,4.8,5.1v4.7c0,1.1,0,2.1,0.2,3H445.1z M444.7,454.7
			c-2.5-0.1-5.3,0.4-5.3,2.8c0,1.5,1,2.2,2.1,2.2c1.7,0,2.7-1,3.1-2.1c0.1-0.2,0.1-0.5,0.1-0.7V454.7z"/>
		<path d="M451.5,448.5l2.7,7.4c0.3,0.8,0.6,1.8,0.8,2.6h0.1c0.2-0.7,0.5-1.7,0.8-2.6l2.5-7.4h2.4l-3.4,9c-1.6,4.3-2.7,6.5-4.3,7.9
			c-1.1,1-2.2,1.4-2.8,1.5l-0.6-1.9c0.6-0.2,1.3-0.5,2-1.1c0.6-0.5,1.4-1.4,1.9-2.5c0.1-0.2,0.2-0.4,0.2-0.6c0-0.1,0-0.3-0.2-0.6
			l-4.6-11.6H451.5z"/>
		<path d="M475.4,461.1l-0.2-1.6h-0.1c-0.7,1-2,1.9-3.8,1.9c-2.5,0-3.8-1.8-3.8-3.6c0-3,2.7-4.7,7.6-4.7v-0.3c0-1-0.3-2.9-2.9-2.9
			c-1.2,0-2.4,0.3-3.3,0.9l-0.5-1.5c1-0.7,2.6-1.1,4.2-1.1c3.8,0,4.8,2.6,4.8,5.1v4.7c0,1.1,0,2.1,0.2,3H475.4z M475,454.7
			c-2.5-0.1-5.3,0.4-5.3,2.8c0,1.5,1,2.2,2.1,2.2c1.7,0,2.7-1,3.1-2.1c0.1-0.2,0.1-0.5,0.1-0.7V454.7z"/>
		<path d="M483.7,444.9v3.6h3.3v1.7h-3.3v6.8c0,1.6,0.5,2.5,1.7,2.5c0.6,0,1-0.1,1.3-0.2l0.1,1.7c-0.4,0.2-1.2,0.3-2,0.3
			c-1.1,0-1.9-0.3-2.5-1c-0.6-0.7-0.9-1.8-0.9-3.3v-6.9h-1.9v-1.7h1.9v-3L483.7,444.9z"/>
		<path d="M495.1,443.6h9.4v1.9h-7.2v5.8h6.6v1.9h-6.6v7.9h-2.3V443.6z"/>
		<path d="M518.2,457.6c0,1.3,0,2.4,0.1,3.4h-2l-0.1-2.1h-0.1c-0.6,1-1.9,2.3-4.2,2.3c-2,0-4.3-1.1-4.3-5.5v-7.3h2.3v6.9
			c0,2.4,0.7,4,2.8,4c1.5,0,2.6-1.1,3-2.1c0.1-0.3,0.2-0.7,0.2-1.2v-7.7h2.3V457.6z"/>
		<path d="M522,452.4c0-1.5,0-2.8-0.1-3.9h2l0.1,2.5h0.1c0.6-1.7,2-2.8,3.5-2.8c0.2,0,0.4,0,0.6,0.1v2.2c-0.2,0-0.5-0.1-0.8-0.1
			c-1.6,0-2.8,1.2-3.1,2.9c-0.1,0.3-0.1,0.7-0.1,1.1v6.7H522V452.4z"/>
		<path d="M530.5,452.4c0-1.5,0-2.8-0.1-3.9h2l0.1,2.5h0.1c0.6-1.7,2-2.8,3.5-2.8c0.2,0,0.4,0,0.6,0.1v2.2c-0.2,0-0.5-0.1-0.8-0.1
			c-1.6,0-2.8,1.2-3.1,2.9c-0.1,0.3-0.1,0.7-0.1,1.1v6.7h-2.3V452.4z"/>
		<path d="M539.9,448.5l2.7,7.4c0.3,0.8,0.6,1.8,0.8,2.6h0.1c0.2-0.7,0.5-1.7,0.8-2.6l2.5-7.4h2.4l-3.4,9c-1.6,4.3-2.7,6.5-4.3,7.9
			c-1.1,1-2.2,1.4-2.8,1.5l-0.6-1.9c0.6-0.2,1.3-0.5,2-1.1c0.6-0.5,1.4-1.4,1.9-2.5c0.1-0.2,0.2-0.4,0.2-0.6c0-0.1,0-0.3-0.2-0.6
			l-4.6-11.6H539.9z"/>
		<path d="M556.9,443.6h9.4v1.9h-7.2v5.8h6.6v1.9h-6.6v7.9h-2.3V443.6z"/>
		<path d="M569.5,452.4c0-1.5,0-2.8-0.1-3.9h2l0.1,2.5h0.1c0.6-1.7,2-2.8,3.5-2.8c0.2,0,0.4,0,0.6,0.1v2.2c-0.2,0-0.5-0.1-0.8-0.1
			c-1.6,0-2.8,1.2-3.1,2.9c-0.1,0.3-0.1,0.7-0.1,1.1v6.7h-2.3V452.4z"/>
		<path d="M580.5,444.9c0,0.8-0.5,1.4-1.5,1.4c-0.8,0-1.4-0.6-1.4-1.4c0-0.8,0.6-1.4,1.4-1.4C580,443.5,580.5,444.2,580.5,444.9z
			 M578,461.1v-12.6h2.3v12.6H578z"/>
		<path d="M585.3,455.2c0,3.1,2,4.4,4.3,4.4c1.6,0,2.6-0.3,3.5-0.6l0.4,1.6c-0.8,0.4-2.2,0.8-4.2,0.8c-3.9,0-6.2-2.6-6.2-6.3
			c0-3.8,2.2-6.8,5.9-6.8c4.1,0,5.2,3.6,5.2,5.9c0,0.5,0,0.8-0.1,1.1H585.3z M592,453.6c0-1.4-0.6-3.7-3.2-3.7
			c-2.3,0-3.3,2.1-3.5,3.7H592z"/>
		<path d="M597.1,451.9c0-1.3,0-2.4-0.1-3.4h2l0.1,2.1h0.1c0.6-1.2,2.1-2.4,4.2-2.4c1.7,0,4.4,1,4.4,5.4v7.5h-2.3v-7.2
			c0-2-0.8-3.7-2.9-3.7c-1.5,0-2.7,1.1-3.1,2.3c-0.1,0.3-0.2,0.7-0.2,1.1v7.6h-2.3V451.9z"/>
		<path d="M622.4,442.6v15.2c0,1.1,0,2.4,0.1,3.2h-2l-0.1-2.2h-0.1c-0.7,1.4-2.2,2.5-4.3,2.5c-3,0-5.4-2.6-5.4-6.4
			c0-4.2,2.6-6.8,5.7-6.8c1.9,0,3.2,0.9,3.8,1.9h0.1v-7.5H622.4z M620.1,453.6c0-0.3,0-0.7-0.1-1c-0.4-1.4-1.6-2.6-3.3-2.6
			c-2.4,0-3.8,2.1-3.8,4.8c0,2.6,1.3,4.7,3.7,4.7c1.5,0,2.9-1,3.3-2.7c0.1-0.3,0.1-0.6,0.1-1V453.6z"/>
		<path d="M625.9,458.8c0.7,0.4,1.9,0.9,3,0.9c1.7,0,2.4-0.8,2.4-1.9c0-1.1-0.7-1.7-2.3-2.3c-2.3-0.8-3.3-2.1-3.3-3.6
			c0-2,1.6-3.7,4.4-3.7c1.3,0,2.4,0.3,3.1,0.8l-0.6,1.7c-0.5-0.3-1.4-0.7-2.6-0.7c-1.3,0-2.1,0.8-2.1,1.7c0,1,0.7,1.5,2.4,2.1
			c2.2,0.8,3.3,1.9,3.3,3.8c0,2.2-1.7,3.8-4.7,3.8c-1.4,0-2.6-0.4-3.5-0.9L625.9,458.8z"/>
		<path d="M635.9,459.7c0-1,0.6-1.7,1.6-1.7c0.9,0,1.5,0.7,1.5,1.7c0,0.9-0.6,1.6-1.6,1.6C636.6,461.4,635.9,460.7,635.9,459.7z"/>
		<path d="M649.7,443.6v7.3h8.5v-7.3h2.3v17.5h-2.3v-8.2h-8.5v8.2h-2.3v-17.5H649.7z"/>
		<path d="M665.6,455.2c0,3.1,2,4.4,4.3,4.4c1.6,0,2.6-0.3,3.5-0.6l0.4,1.6c-0.8,0.4-2.2,0.8-4.2,0.8c-3.9,0-6.2-2.6-6.2-6.3
			c0-3.8,2.2-6.8,5.9-6.8c4.1,0,5.2,3.6,5.2,5.9c0,0.5,0,0.8-0.1,1.1H665.6z M672.3,453.6c0-1.4-0.6-3.7-3.2-3.7
			c-2.3,0-3.3,2.1-3.5,3.7H672.3z"/>
		<path d="M682.9,451.9c0-1.3,0-2.4-0.1-3.4h2l0.1,2.1h0.1c0.6-1.2,2.1-2.4,4.2-2.4c1.7,0,4.4,1,4.4,5.4v7.5h-2.3v-7.2
			c0-2-0.8-3.7-2.9-3.7c-1.5,0-2.7,1.1-3.1,2.3c-0.1,0.3-0.2,0.7-0.2,1.1v7.6h-2.3V451.9z"/>
		<path d="M708.7,454.7c0,4.7-3.2,6.7-6.3,6.7c-3.4,0-6-2.5-6-6.5c0-4.2,2.8-6.7,6.2-6.7C706.2,448.2,708.7,450.8,708.7,454.7z
			 M698.7,454.8c0,2.8,1.6,4.8,3.8,4.8c2.2,0,3.8-2,3.8-4.9c0-2.1-1.1-4.8-3.8-4.8C699.9,449.9,698.7,452.4,698.7,454.8z"/>
		<path d="M712.5,448.5l1.7,6.4c0.4,1.4,0.7,2.7,0.9,4h0.1c0.3-1.3,0.7-2.6,1.1-4l2.1-6.4h1.9l2,6.3c0.4,1.5,0.8,2.8,1.1,4.1h0.1
			c0.2-1.3,0.6-2.6,1-4.1l1.8-6.3h2.3l-4.1,12.6h-2.1l-1.9-6c-0.5-1.4-0.8-2.7-1.1-4.1h-0.1c-0.3,1.5-0.7,2.8-1.2,4.2l-2,6h-2.1
			l-3.8-12.6H712.5z"/>
		<path d="M173.4,480.9c0,0.8-0.5,1.4-1.5,1.4c-0.8,0-1.4-0.6-1.4-1.4c0-0.8,0.6-1.4,1.4-1.4C172.9,479.5,173.4,480.2,173.4,480.9z
			 M170.9,497.1v-12.6h2.3v12.6H170.9z"/>
		<path d="M176.6,494.8c0.7,0.4,1.9,0.9,3,0.9c1.7,0,2.4-0.8,2.4-1.9c0-1.1-0.7-1.7-2.3-2.3c-2.3-0.8-3.3-2.1-3.3-3.6
			c0-2,1.6-3.7,4.4-3.7c1.3,0,2.4,0.3,3.1,0.8l-0.6,1.7c-0.5-0.3-1.4-0.7-2.6-0.7c-1.3,0-2.1,0.8-2.1,1.7c0,1,0.7,1.5,2.4,2.1
			c2.2,0.8,3.3,1.9,3.3,3.8c0,2.2-1.7,3.8-4.7,3.8c-1.4,0-2.6-0.4-3.5-0.9L176.6,494.8z"/>
		<path d="M199.7,497.1l-0.2-1.6h-0.1c-0.7,1-2,1.9-3.8,1.9c-2.5,0-3.8-1.8-3.8-3.6c0-3,2.7-4.7,7.6-4.7v-0.3c0-1-0.3-2.9-2.9-2.9
			c-1.2,0-2.4,0.3-3.3,0.9l-0.5-1.5c1-0.7,2.6-1.1,4.2-1.1c3.8,0,4.8,2.6,4.8,5.1v4.7c0,1.1,0,2.1,0.2,3H199.7z M199.4,490.7
			c-2.5-0.1-5.3,0.4-5.3,2.8c0,1.5,1,2.2,2.1,2.2c1.7,0,2.7-1,3.1-2.1c0.1-0.2,0.1-0.5,0.1-0.7V490.7z"/>
		<path d="M210.8,478.6h2.3v7.9h0.1c0.4-0.6,0.9-1.2,1.6-1.6c0.7-0.4,1.5-0.6,2.3-0.6c1.7,0,4.4,1,4.4,5.4v7.5h-2.3v-7.2
			c0-2-0.8-3.7-2.9-3.7c-1.5,0-2.6,1-3.1,2.3c-0.1,0.3-0.2,0.7-0.2,1.1v7.6h-2.3V478.6z"/>
		<path d="M232.2,497.1l-0.2-1.6h-0.1c-0.7,1-2,1.9-3.8,1.9c-2.5,0-3.8-1.8-3.8-3.6c0-3,2.7-4.7,7.6-4.7v-0.3c0-1-0.3-2.9-2.9-2.9
			c-1.2,0-2.4,0.3-3.3,0.9l-0.5-1.5c1-0.7,2.6-1.1,4.2-1.1c3.8,0,4.8,2.6,4.8,5.1v4.7c0,1.1,0,2.1,0.2,3H232.2z M231.8,490.7
			c-2.5-0.1-5.3,0.4-5.3,2.8c0,1.5,1,2.2,2.1,2.2c1.7,0,2.7-1,3.1-2.1c0.1-0.2,0.1-0.5,0.1-0.7V490.7z"/>
		<path d="M237.8,488.6c0-1.6,0-2.9-0.1-4.1h2l0.1,2.1h0.1c0.9-1.5,2.4-2.4,4.5-2.4c3,0,5.3,2.6,5.3,6.4c0,4.5-2.8,6.8-5.7,6.8
			c-1.7,0-3.1-0.7-3.9-2H240v6.8h-2.3V488.6z M240,492c0,0.3,0,0.6,0.1,0.9c0.4,1.6,1.8,2.7,3.4,2.7c2.4,0,3.8-2,3.8-4.9
			c0-2.5-1.3-4.7-3.7-4.7c-1.6,0-3,1.1-3.5,2.8c-0.1,0.3-0.1,0.6-0.1,0.9V492z"/>
		<path d="M252.5,488.6c0-1.6,0-2.9-0.1-4.1h2l0.1,2.1h0.1c0.9-1.5,2.4-2.4,4.5-2.4c3,0,5.3,2.6,5.3,6.4c0,4.5-2.8,6.8-5.7,6.8
			c-1.7,0-3.1-0.7-3.9-2h-0.1v6.8h-2.3V488.6z M254.8,492c0,0.3,0,0.6,0.1,0.9c0.4,1.6,1.8,2.7,3.4,2.7c2.4,0,3.8-2,3.8-4.9
			c0-2.5-1.3-4.7-3.7-4.7c-1.6,0-3,1.1-3.5,2.8c-0.1,0.3-0.1,0.6-0.1,0.9V492z"/>
		<path d="M268.2,484.5l2.7,7.4c0.3,0.8,0.6,1.8,0.8,2.6h0.1c0.2-0.7,0.5-1.7,0.8-2.6l2.5-7.4h2.4l-3.4,9c-1.6,4.3-2.7,6.5-4.3,7.9
			c-1.1,1-2.2,1.4-2.8,1.5l-0.6-1.9c0.6-0.2,1.3-0.5,2-1.1c0.6-0.5,1.4-1.4,1.9-2.5c0.1-0.2,0.2-0.4,0.2-0.6c0-0.1,0-0.3-0.2-0.6
			l-4.6-11.6H268.2z"/>
		<path d="M292.1,497.1l-0.2-1.6h-0.1c-0.7,1-2,1.9-3.8,1.9c-2.5,0-3.8-1.8-3.8-3.6c0-3,2.7-4.7,7.6-4.7v-0.3c0-1-0.3-2.9-2.9-2.9
			c-1.2,0-2.4,0.3-3.3,0.9l-0.5-1.5c1-0.7,2.6-1.1,4.2-1.1c3.8,0,4.8,2.6,4.8,5.1v4.7c0,1.1,0,2.1,0.2,3H292.1z M291.7,490.7
			c-2.5-0.1-5.3,0.4-5.3,2.8c0,1.5,1,2.2,2.1,2.2c1.7,0,2.7-1,3.1-2.1c0.1-0.2,0.1-0.5,0.1-0.7V490.7z"/>
		<path d="M297.6,487.9c0-1.3,0-2.4-0.1-3.4h2l0.1,2.1h0.1c0.6-1.2,2.1-2.4,4.2-2.4c1.7,0,4.4,1,4.4,5.4v7.5h-2.3v-7.2
			c0-2-0.8-3.7-2.9-3.7c-1.5,0-2.7,1.1-3.1,2.3c-0.1,0.3-0.2,0.7-0.2,1.1v7.6h-2.3V487.9z"/>
		<path d="M322.9,478.6v15.2c0,1.1,0,2.4,0.1,3.2h-2l-0.1-2.2h-0.1c-0.7,1.4-2.2,2.5-4.3,2.5c-3,0-5.4-2.6-5.4-6.4
			c0-4.2,2.6-6.8,5.6-6.8c1.9,0,3.2,0.9,3.8,1.9h0.1v-7.5H322.9z M320.6,489.6c0-0.3,0-0.7-0.1-1c-0.4-1.4-1.6-2.6-3.3-2.6
			c-2.4,0-3.8,2.1-3.8,4.8c0,2.6,1.3,4.7,3.7,4.7c1.5,0,2.9-1,3.3-2.7c0.1-0.3,0.1-0.6,0.1-1V489.6z"/>
		<path d="M332.5,497.1v-10.8h-1.8v-1.7h1.8v-0.6c0-1.8,0.4-3.4,1.5-4.4c0.9-0.8,2-1.2,3.1-1.2c0.8,0,1.5,0.2,2,0.4l-0.3,1.8
			c-0.3-0.2-0.8-0.3-1.5-0.3c-1.9,0-2.4,1.7-2.4,3.7v0.7h3v1.7h-3v10.8H332.5z"/>
		<path d="M339.8,488.4c0-1.5,0-2.8-0.1-3.9h2l0.1,2.5h0.1c0.6-1.7,2-2.8,3.5-2.8c0.2,0,0.4,0,0.6,0.1v2.2c-0.2,0-0.5-0.1-0.8-0.1
			c-1.6,0-2.8,1.2-3.1,2.9c-0.1,0.3-0.1,0.7-0.1,1.1v6.7h-2.3V488.4z"/>
		<path d="M350.9,480.9c0,0.8-0.5,1.4-1.5,1.4c-0.8,0-1.4-0.6-1.4-1.4c0-0.8,0.6-1.4,1.4-1.4C350.3,479.5,350.9,480.2,350.9,480.9z
			 M348.3,497.1v-12.6h2.3v12.6H348.3z"/>
		<path d="M355.7,491.2c0,3.1,2,4.4,4.3,4.4c1.6,0,2.6-0.3,3.5-0.6l0.4,1.6c-0.8,0.4-2.2,0.8-4.2,0.8c-3.9,0-6.2-2.6-6.2-6.3
			c0-3.8,2.2-6.8,5.9-6.8c4.1,0,5.2,3.6,5.2,5.9c0,0.5,0,0.8-0.1,1.1H355.7z M362.4,489.6c0-1.4-0.6-3.7-3.2-3.7
			c-2.3,0-3.3,2.1-3.5,3.7H362.4z"/>
		<path d="M367.4,487.9c0-1.3,0-2.4-0.1-3.4h2l0.1,2.1h0.1c0.6-1.2,2.1-2.4,4.2-2.4c1.7,0,4.4,1,4.4,5.4v7.5h-2.3v-7.2
			c0-2-0.8-3.7-2.9-3.7c-1.5,0-2.7,1.1-3.1,2.3c-0.1,0.3-0.2,0.7-0.2,1.1v7.6h-2.3V487.9z"/>
		<path d="M392.7,478.6v15.2c0,1.1,0,2.4,0.1,3.2h-2l-0.1-2.2h-0.1c-0.7,1.4-2.2,2.5-4.3,2.5c-3,0-5.4-2.6-5.4-6.4
			c0-4.2,2.6-6.8,5.6-6.8c1.9,0,3.2,0.9,3.8,1.9h0.1v-7.5H392.7z M390.5,489.6c0-0.3,0-0.7-0.1-1c-0.4-1.4-1.6-2.6-3.3-2.6
			c-2.4,0-3.8,2.1-3.8,4.8c0,2.6,1.3,4.7,3.7,4.7c1.5,0,2.9-1,3.3-2.7c0.1-0.3,0.1-0.6,0.1-1V489.6z"/>
		<path d="M396.5,478.6h2.3v18.5h-2.3V478.6z"/>
		<path d="M403.5,484.5l2.7,7.4c0.3,0.8,0.6,1.8,0.8,2.6h0.1c0.2-0.7,0.5-1.7,0.8-2.6l2.5-7.4h2.4l-3.4,9c-1.6,4.3-2.7,6.5-4.3,7.9
			c-1.1,1-2.2,1.4-2.8,1.5l-0.6-1.9c0.6-0.2,1.3-0.5,2-1.1c0.6-0.5,1.4-1.4,1.9-2.5c0.1-0.2,0.2-0.4,0.2-0.6c0-0.1,0-0.3-0.2-0.6
			l-4.6-11.6H403.5z"/>
		<path d="M420.3,497.1c0.1-0.9,0.1-2.1,0.1-3.2v-15.2h2.3v7.9h0.1c0.8-1.4,2.3-2.3,4.3-2.3c3.1,0,5.3,2.6,5.3,6.4
			c0,4.5-2.9,6.7-5.7,6.7c-1.8,0-3.3-0.7-4.2-2.4h-0.1l-0.1,2.1H420.3z M422.7,492c0,0.3,0,0.6,0.1,0.8c0.4,1.6,1.8,2.7,3.4,2.7
			c2.4,0,3.8-1.9,3.8-4.8c0-2.5-1.3-4.7-3.8-4.7c-1.5,0-3,1.1-3.5,2.8c-0.1,0.3-0.1,0.6-0.1,1V492z"/>
		<path d="M446.6,490.7c0,4.7-3.2,6.7-6.3,6.7c-3.4,0-6-2.5-6-6.5c0-4.2,2.8-6.7,6.2-6.7C444.2,484.2,446.6,486.8,446.6,490.7z
			 M436.6,490.8c0,2.8,1.6,4.8,3.8,4.8c2.2,0,3.8-2,3.8-4.9c0-2.1-1.1-4.8-3.8-4.8C437.8,485.9,436.6,488.4,436.6,490.8z"/>
		<path d="M450.3,484.5l2.7,7.4c0.3,0.8,0.6,1.8,0.8,2.6h0.1c0.2-0.7,0.5-1.7,0.8-2.6l2.5-7.4h2.4l-3.4,9c-1.6,4.3-2.8,6.5-4.3,7.9
			c-1.1,1-2.2,1.4-2.8,1.5l-0.6-1.9c0.6-0.2,1.3-0.5,2-1.1c0.6-0.5,1.4-1.4,1.9-2.5c0.1-0.2,0.2-0.4,0.2-0.6c0-0.1,0-0.3-0.2-0.6
			l-4.6-11.6H450.3z"/>
		<path d="M468.1,484.5l1.7,6.4c0.4,1.4,0.7,2.7,0.9,4h0.1c0.3-1.3,0.7-2.6,1.1-4l2.1-6.4h1.9l2,6.3c0.4,1.5,0.8,2.8,1.1,4.1h0.1
			c0.2-1.3,0.6-2.6,1-4.1l1.8-6.3h2.3l-4.1,12.6H478l-1.9-6c-0.5-1.4-0.8-2.7-1.1-4.1h-0.1c-0.3,1.5-0.7,2.8-1.2,4.2l-2,6h-2.1
			l-3.8-12.6H468.1z"/>
		<path d="M488.9,480.9c0,0.8-0.5,1.4-1.5,1.4c-0.8,0-1.4-0.6-1.4-1.4c0-0.8,0.6-1.4,1.4-1.4C488.4,479.5,488.9,480.2,488.9,480.9z
			 M486.4,497.1v-12.6h2.3v12.6H486.4z"/>
		<path d="M495.2,480.9v3.6h3.3v1.7h-3.3v6.8c0,1.6,0.5,2.5,1.7,2.5c0.6,0,1-0.1,1.3-0.2l0.1,1.7c-0.4,0.2-1.2,0.3-2,0.3
			c-1.1,0-1.9-0.3-2.5-1c-0.6-0.7-0.9-1.8-0.9-3.3v-6.9H491v-1.7h1.9v-3L495.2,480.9z"/>
		<path d="M501.1,478.6h2.3v7.9h0.1c0.4-0.6,0.9-1.2,1.6-1.6c0.7-0.4,1.5-0.6,2.3-0.6c1.7,0,4.4,1,4.4,5.4v7.5h-2.3v-7.2
			c0-2-0.8-3.7-2.9-3.7c-1.5,0-2.6,1-3.1,2.3c-0.1,0.3-0.2,0.7-0.2,1.1v7.6h-2.3V478.6z"/>
		<path d="M521,487.9c0-1.3,0-2.4-0.1-3.4h2l0.1,2h0.1c0.7-1.2,1.9-2.3,4-2.3c1.7,0,3,1,3.5,2.5h0.1c0.4-0.7,0.9-1.3,1.4-1.6
			c0.8-0.6,1.6-0.9,2.8-0.9c1.7,0,4.2,1.1,4.2,5.5v7.4h-2.2V490c0-2.4-0.9-3.9-2.7-3.9c-1.3,0-2.3,1-2.7,2.1
			c-0.1,0.3-0.2,0.7-0.2,1.1v7.8h-2.2v-7.5c0-2-0.9-3.4-2.6-3.4c-1.4,0-2.5,1.1-2.9,2.3c-0.1,0.3-0.2,0.7-0.2,1.1v7.6H521V487.9z"/>
		<path d="M549.7,497.1l-0.2-1.6h-0.1c-0.7,1-2,1.9-3.8,1.9c-2.5,0-3.8-1.8-3.8-3.6c0-3,2.7-4.7,7.6-4.7v-0.3c0-1-0.3-2.9-2.9-2.9
			c-1.2,0-2.4,0.3-3.3,0.9l-0.5-1.5c1-0.7,2.6-1.1,4.2-1.1c3.8,0,4.8,2.6,4.8,5.1v4.7c0,1.1,0,2.1,0.2,3H549.7z M549.3,490.7
			c-2.5-0.1-5.3,0.4-5.3,2.8c0,1.5,1,2.2,2.1,2.2c1.7,0,2.7-1,3.1-2.1c0.1-0.2,0.1-0.5,0.1-0.7V490.7z"/>
		<path d="M555.2,487.9c0-1.3,0-2.4-0.1-3.4h2l0.1,2.1h0.1c0.6-1.2,2.1-2.4,4.2-2.4c1.7,0,4.4,1,4.4,5.4v7.5h-2.3v-7.2
			c0-2-0.8-3.7-2.9-3.7c-1.5,0-2.7,1.1-3.1,2.3c-0.1,0.3-0.2,0.7-0.2,1.1v7.6h-2.3V487.9z"/>
		<path d="M570.5,484.5l2.7,7.4c0.3,0.8,0.6,1.8,0.8,2.6h0.1c0.2-0.7,0.5-1.7,0.8-2.6l2.5-7.4h2.4l-3.4,9c-1.6,4.3-2.7,6.5-4.3,7.9
			c-1.1,1-2.2,1.4-2.8,1.5l-0.6-1.9c0.6-0.2,1.3-0.5,2-1.1c0.6-0.5,1.4-1.4,1.9-2.5c0.1-0.2,0.2-0.4,0.2-0.6c0-0.1,0-0.3-0.2-0.6
			l-4.6-11.6H570.5z"/>
		<path d="M598.3,478.6v15.2c0,1.1,0,2.4,0.1,3.2h-2l-0.1-2.2h-0.1c-0.7,1.4-2.2,2.5-4.3,2.5c-3,0-5.4-2.6-5.4-6.4
			c0-4.2,2.6-6.8,5.6-6.8c1.9,0,3.2,0.9,3.8,1.9h0.1v-7.5H598.3z M596,489.6c0-0.3,0-0.7-0.1-1c-0.4-1.4-1.6-2.6-3.3-2.6
			c-2.4,0-3.8,2.1-3.8,4.8c0,2.6,1.3,4.7,3.7,4.7c1.5,0,2.9-1,3.3-2.7c0.1-0.3,0.1-0.6,0.1-1V489.6z"/>
		<path d="M613.5,490.7c0,4.7-3.2,6.7-6.3,6.7c-3.4,0-6-2.5-6-6.5c0-4.2,2.8-6.7,6.2-6.7C611,484.2,613.5,486.8,613.5,490.7z
			 M603.5,490.8c0,2.8,1.6,4.8,3.8,4.8c2.2,0,3.8-2,3.8-4.9c0-2.1-1.1-4.8-3.8-4.8C604.7,485.9,603.5,488.4,603.5,490.8z"/>
		<path d="M627.2,484.5c-0.1,0.9-0.1,1.9-0.1,3.4v7.3c0,2.9-0.6,4.7-1.8,5.8c-1.2,1.1-3,1.5-4.6,1.5c-1.5,0-3.2-0.4-4.2-1l0.6-1.8
			c0.8,0.5,2.1,1,3.7,1c2.3,0,4-1.2,4-4.4v-1.4h-0.1c-0.7,1.2-2.1,2.1-4,2.1c-3.1,0-5.4-2.7-5.4-6.2c0-4.3,2.8-6.7,5.7-6.7
			c2.2,0,3.4,1.1,3.9,2.2h0.1l0.1-1.9H627.2z M624.8,489.4c0-0.4,0-0.7-0.1-1c-0.4-1.3-1.5-2.4-3.2-2.4c-2.2,0-3.7,1.8-3.7,4.8
			c0,2.5,1.3,4.5,3.7,4.5c1.4,0,2.7-0.9,3.2-2.4c0.1-0.4,0.2-0.8,0.2-1.2V489.4z"/>
		<path d="M636.6,497.1v-10.8h-1.8v-1.7h1.8v-0.6c0-1.8,0.4-3.4,1.5-4.4c0.9-0.8,2-1.2,3.1-1.2c0.8,0,1.5,0.2,2,0.4l-0.3,1.8
			c-0.3-0.2-0.8-0.3-1.5-0.3c-1.9,0-2.4,1.7-2.4,3.7v0.7h3v1.7h-3v10.8H636.6z"/>
		<path d="M644,488.4c0-1.5,0-2.8-0.1-3.9h2l0.1,2.5h0.1c0.6-1.7,2-2.8,3.5-2.8c0.2,0,0.4,0,0.6,0.1v2.2c-0.2,0-0.5-0.1-0.8-0.1
			c-1.6,0-2.8,1.2-3.1,2.9c-0.1,0.3-0.1,0.7-0.1,1.1v6.7H644V488.4z"/>
		<path d="M655.1,480.9c0,0.8-0.5,1.4-1.5,1.4c-0.8,0-1.4-0.6-1.4-1.4c0-0.8,0.6-1.4,1.4-1.4C654.5,479.5,655.1,480.2,655.1,480.9z
			 M652.5,497.1v-12.6h2.3v12.6H652.5z"/>
		<path d="M659.9,491.2c0,3.1,2,4.4,4.3,4.4c1.6,0,2.6-0.3,3.5-0.6l0.4,1.6c-0.8,0.4-2.2,0.8-4.2,0.8c-3.9,0-6.2-2.6-6.2-6.3
			c0-3.8,2.2-6.8,5.9-6.8c4.1,0,5.2,3.6,5.2,5.9c0,0.5,0,0.8-0.1,1.1H659.9z M666.6,489.6c0-1.4-0.6-3.7-3.2-3.7
			c-2.3,0-3.3,2.1-3.5,3.7H666.6z"/>
		<path d="M671.6,487.9c0-1.3,0-2.4-0.1-3.4h2l0.1,2.1h0.1c0.6-1.2,2.1-2.4,4.2-2.4c1.7,0,4.4,1,4.4,5.4v7.5H680v-7.2
			c0-2-0.8-3.7-2.9-3.7c-1.5,0-2.7,1.1-3.1,2.3c-0.1,0.3-0.2,0.7-0.2,1.1v7.6h-2.3V487.9z"/>
		<path d="M696.9,478.6v15.2c0,1.1,0,2.4,0.1,3.2h-2l-0.1-2.2h-0.1c-0.7,1.4-2.2,2.5-4.3,2.5c-3,0-5.4-2.6-5.4-6.4
			c0-4.2,2.6-6.8,5.7-6.8c1.9,0,3.2,0.9,3.8,1.9h0.1v-7.5H696.9z M694.6,489.6c0-0.3,0-0.7-0.1-1c-0.4-1.4-1.6-2.6-3.3-2.6
			c-2.4,0-3.8,2.1-3.8,4.8c0,2.6,1.3,4.7,3.7,4.7c1.5,0,2.9-1,3.3-2.7c0.1-0.3,0.1-0.6,0.1-1V489.6z"/>
		<path d="M700.4,494.8c0.7,0.4,1.9,0.9,3,0.9c1.7,0,2.4-0.8,2.4-1.9c0-1.1-0.7-1.7-2.3-2.3c-2.3-0.8-3.3-2.1-3.3-3.6
			c0-2,1.6-3.7,4.3-3.7c1.3,0,2.4,0.3,3.1,0.8l-0.6,1.7c-0.5-0.3-1.4-0.7-2.6-0.7c-1.3,0-2.1,0.8-2.1,1.7c0,1,0.7,1.5,2.4,2.1
			c2.2,0.8,3.3,1.9,3.3,3.8c0,2.2-1.7,3.8-4.7,3.8c-1.4,0-2.6-0.4-3.5-0.9L700.4,494.8z"/>
		<path d="M719.4,479.3c-0.6,2.2-1.7,5-2.4,6.2l-1.5,0.2c0.6-1.5,1.2-4.2,1.5-6.1L719.4,479.3z M723.2,479.3c-0.6,2.2-1.7,5-2.4,6.2
			l-1.5,0.2c0.6-1.5,1.2-4.2,1.5-6.1L723.2,479.3z"/>
	</g>
</g>
<g>
	<g>
		<path d="M379.7,519v1.2H375V519H379.7z"/>
		<path d="M384.2,513.3h-3.9v-1.4h9.5v1.4h-3.9v11.4h-1.7V513.3z"/>
		<path d="M393,512.9c0,0.6-0.4,1-1.1,1c-0.6,0-1-0.5-1-1c0-0.6,0.4-1,1-1C392.6,511.9,393,512.3,393,512.9z M391.1,524.7v-9.2h1.7
			v9.2H391.1z"/>
		<path d="M395.6,518c0-1,0-1.7-0.1-2.5h1.5l0.1,1.5h0c0.5-0.9,1.5-1.7,3-1.7c1.3,0,3.2,0.8,3.2,3.9v5.5h-1.7v-5.3
			c0-1.5-0.6-2.7-2.1-2.7c-1.1,0-2,0.8-2.3,1.7c-0.1,0.2-0.1,0.5-0.1,0.8v5.5h-1.7V518z"/>
		<path d="M411.2,524.7l-0.1-1.2h0c-0.5,0.7-1.5,1.4-2.8,1.4c-1.9,0-2.8-1.3-2.8-2.6c0-2.2,2-3.4,5.5-3.4v-0.2
			c0-0.7-0.2-2.1-2.1-2.1c-0.9,0-1.7,0.3-2.4,0.7l-0.4-1.1c0.8-0.5,1.9-0.8,3-0.8c2.8,0,3.5,1.9,3.5,3.8v3.4c0,0.8,0,1.6,0.1,2.2
			H411.2z M411,520c-1.8,0-3.9,0.3-3.9,2.1c0,1.1,0.7,1.6,1.6,1.6c1.2,0,2-0.8,2.2-1.5c0.1-0.2,0.1-0.4,0.1-0.5V520z"/>
		<path d="M424.4,524.7l-0.1-1.2h0c-0.5,0.7-1.5,1.4-2.8,1.4c-1.9,0-2.8-1.3-2.8-2.6c0-2.2,2-3.4,5.5-3.4v-0.2
			c0-0.7-0.2-2.1-2.1-2.1c-0.9,0-1.7,0.3-2.4,0.7l-0.4-1.1c0.8-0.5,1.9-0.8,3-0.8c2.8,0,3.5,1.9,3.5,3.8v3.4c0,0.8,0,1.6,0.1,2.2
			H424.4z M424.2,520c-1.8,0-3.9,0.3-3.9,2.1c0,1.1,0.7,1.6,1.6,1.6c1.2,0,2-0.8,2.2-1.5c0.1-0.2,0.1-0.4,0.1-0.5V520z"/>
		<path d="M428.5,518c0-1,0-1.7-0.1-2.5h1.5l0.1,1.5h0c0.5-0.9,1.5-1.7,3-1.7c1.3,0,3.2,0.8,3.2,3.9v5.5h-1.7v-5.3
			c0-1.5-0.6-2.7-2.1-2.7c-1.1,0-2,0.8-2.3,1.7c-0.1,0.2-0.1,0.5-0.1,0.8v5.5h-1.7V518z"/>
		<path d="M446.9,511.2v11.1c0,0.8,0,1.7,0.1,2.4h-1.5l-0.1-1.6h0c-0.5,1-1.6,1.8-3.1,1.8c-2.2,0-3.9-1.9-3.9-4.7
			c0-3.1,1.9-4.9,4.1-4.9c1.4,0,2.4,0.7,2.8,1.4h0v-5.5H446.9z M445.3,519.3c0-0.2,0-0.5-0.1-0.7c-0.3-1.1-1.2-1.9-2.4-1.9
			c-1.7,0-2.8,1.5-2.8,3.5c0,1.9,0.9,3.4,2.7,3.4c1.1,0,2.1-0.8,2.4-2c0.1-0.2,0.1-0.5,0.1-0.7V519.3z"/>
		<path d="M453.8,512.1c0.7-0.2,1.9-0.3,3-0.3c1.7,0,2.7,0.3,3.5,0.9c0.7,0.5,1.1,1.3,1.1,2.3c0,1.2-0.8,2.3-2.2,2.8v0.1
			c1.2,0.3,2.6,1.3,2.6,3.2c0,1.1-0.4,1.9-1.1,2.5c-0.9,0.8-2.3,1.2-4.4,1.2c-1.1,0-2-0.1-2.6-0.1V512.1z M455.5,517.3h1.5
			c1.7,0,2.8-0.9,2.8-2.2c0-1.5-1.1-2.1-2.8-2.1c-0.8,0-1.2,0.1-1.5,0.1V517.3z M455.5,523.4c0.3,0.1,0.8,0.1,1.4,0.1
			c1.7,0,3.3-0.6,3.3-2.5c0-1.7-1.5-2.5-3.3-2.5h-1.4V523.4z"/>
		<path d="M465,520.4c0,2.3,1.5,3.2,3.1,3.2c1.2,0,1.9-0.2,2.5-0.5l0.3,1.2c-0.6,0.3-1.6,0.6-3.1,0.6c-2.8,0-4.5-1.9-4.5-4.6
			c0-2.8,1.6-5,4.3-5c3,0,3.8,2.6,3.8,4.3c0,0.4,0,0.6-0.1,0.8H465z M469.9,519.2c0-1.1-0.4-2.7-2.3-2.7c-1.7,0-2.4,1.5-2.6,2.7
			H469.9z"/>
		<path d="M478.7,524.7l-0.1-1.2h0c-0.5,0.7-1.5,1.4-2.8,1.4c-1.9,0-2.8-1.3-2.8-2.6c0-2.2,2-3.4,5.5-3.4v-0.2
			c0-0.7-0.2-2.1-2.1-2.1c-0.9,0-1.7,0.3-2.4,0.7l-0.4-1.1c0.8-0.5,1.9-0.8,3-0.8c2.8,0,3.5,1.9,3.5,3.8v3.4c0,0.8,0,1.6,0.1,2.2
			H478.7z M478.4,520c-1.8,0-3.9,0.3-3.9,2.1c0,1.1,0.7,1.6,1.6,1.6c1.2,0,2-0.8,2.2-1.5c0.1-0.2,0.1-0.4,0.1-0.5V520z"/>
		<path d="M482.7,518c0-1,0-1.7-0.1-2.5h1.5l0.1,1.5h0c0.5-0.9,1.5-1.7,3-1.7c1.3,0,3.2,0.8,3.2,3.9v5.5h-1.7v-5.3
			c0-1.5-0.6-2.7-2.1-2.7c-1.1,0-2,0.8-2.3,1.7c-0.1,0.2-0.1,0.5-0.1,0.8v5.5h-1.7V518z"/>
		<path d="M493,523c0.5,0.3,1.4,0.7,2.2,0.7c1.2,0,1.8-0.6,1.8-1.4c0-0.8-0.5-1.2-1.7-1.7c-1.7-0.6-2.4-1.5-2.4-2.6
			c0-1.5,1.2-2.7,3.2-2.7c0.9,0,1.7,0.3,2.3,0.6l-0.4,1.2c-0.4-0.2-1-0.5-1.9-0.5c-1,0-1.5,0.6-1.5,1.3c0,0.8,0.5,1.1,1.7,1.6
			c1.6,0.6,2.4,1.4,2.4,2.8c0,1.6-1.3,2.8-3.4,2.8c-1,0-1.9-0.3-2.6-0.6L493,523z"/>
	</g>
</g>
</svg>
