<?xml version="1.0" encoding="utf-8"?>
<!-- Generator: Adobe Illustrator 26.5.0, SVG Export Plug-In . SVG Version: 6.00 Build 0)  -->
<svg version="1.1" id="Layer_1" xmlns="http://www.w3.org/2000/svg" xmlns:xlink="http://www.w3.org/1999/xlink" x="0px" y="0px"
	 viewBox="0 0 775 151.1" style="enable-background:new 0 0 775 151.1;" xml:space="preserve">
<style type="text/css">
	.st0{fill:#317781;}
	.st1{fill:#FFFFFF;stroke:#317781;stroke-miterlimit:10;}
	.st2{fill:none;stroke:#317781;stroke-miterlimit:10;}
	.st3{fill:#FFFFFF;}
	.st4{font-family:'ArialRoundedMTBold';}
	.st5{font-size:93.5261px;}
</style>
<g>
	<path class="st0" d="M22.4,51.1c0,0,5.3-0.1,10.8,2.9c2.6,1.4,5.2,3.4,7.3,6.5c6.8,9.6,2.5,23.6,2.5,23.6s-3.7,10.4-14.7,13.5
		C17.2,100.7,10.8,81,10.8,81s-2.5-11.2,1.4-23.4C12.2,57.4,15.5,50.7,22.4,51.1z"/>
	<path class="st0" d="M50.6,11.4c0,0-11.8,3.2-14.1,17.9s8,26.1,8,26.1s2.4,4.3,12.6,6.3s11.3-20.5,11.3-20.5s-0.3-15.8-4.2-21.1
		c-4-5.3-5.6-6.7-5.6-6.7S56.8,10.8,50.6,11.4z"/>
	<path class="st0" d="M86.2,12.3c0,0-8.7,3.7-11.4,20.4c0,0-1.2,20.4,2.2,22.6c0,0,4.4,6.5,9.8,6.5s14.6-6.7,17.1-15.2
		c2.5-8.6,4-14.4,1.8-20.1c-2.2-5.7-5.5-11.5-10.6-13.6C90,10.7,86.2,12.3,86.2,12.3z"/>
	<path class="st0" d="M115.3,51.8c0,0-16,6.2-16.6,16.6c-0.6,10.3-0.2,14.1,4.3,21.1c4.4,7,11.6,8.9,14.8,8.4s10.2-4.3,12.7-12.1
		c2.5-7.8,2.3-17.8,1.9-19.6c-0.4-1.9,0.2-9.1-6-13.3C120.3,48.5,115.3,51.8,115.3,51.8z"/>
	<path class="st0" d="M87.7,132c0.4,0.1,0.7,0.2,1.1,0.3c2.2,0.7,4.1,1.1,5.3,0.9c2.9-0.6,9.6,0.1,12.7-14s-4.6-20.5-4.6-20.5
		s-5.2-6.6-9.3-8.8c0,0-1.5-0.6-3.3-8.2C87.9,74,80.9,71,80.9,71s-2.3-1.6-9.5-1.6c0,0-9.5-1-15,5.6c0,0-3,3.1-4.1,9.6
		s-7.8,9.6-7.8,9.6s-8.8,7.2-8.8,12s-2.8,14.6,5.1,23.4c3.6,3.9,9.1,4.1,14.2,3.2"/>
	<polyline class="st1" points="54.8,117.8 54.8,132.3 87.9,132.3 87.9,131.2 87.8,100.7 71.3,91.9 54.9,100.7 54.8,118.7 	"/>
	<polyline class="st2" points="88,131.7 87.9,101.3 71.4,92.5 55,101.3 54.9,119.3 54.9,131.7 	"/>
	<rect x="58.7" y="121.4" class="st0" width="4.9" height="4.9"/>
	<rect x="79.1" y="121.4" class="st0" width="4.9" height="4.9"/>
	<rect x="69" y="111.3" class="st0" width="4.9" height="4.9"/>
	<rect x="58.7" y="111.3" class="st0" width="4.9" height="4.9"/>
	<rect x="79.1" y="111.3" class="st0" width="4.9" height="4.9"/>
	<rect x="79.1" y="101.4" class="st0" width="4.9" height="4.9"/>
	<rect x="69" y="101.4" class="st0" width="4.9" height="4.9"/>
	<rect x="58.7" y="101.4" class="st0" width="4.9" height="4.9"/>
	<rect x="67.2" y="121.1" class="st2" width="3.6" height="6.9"/>
	<rect x="72" y="121.1" class="st2" width="3.6" height="6.9"/>
	<rect x="69.5" y="124.3" class="st0" width="0.8" height="0.8"/>
	<rect x="72.7" y="124.3" class="st0" width="0.8" height="0.8"/>
	<g>
		<g>
			<path class="st3" d="M56.4,133.9c4.8,0.1,9.6,0.1,14.3-0.1c1.8-0.1,1.8-2.8,0-2.8c-4.8,0.1-9.6,0.1-14.3,0.1
				C54.6,131.1,54.6,133.8,56.4,133.9L56.4,133.9z"/>
		</g>
	</g>
	<g>
		<g>
			<path class="st3" d="M86.4,133.8c1.8,0,1.8-2.8,0-2.8C84.6,131.1,84.6,133.8,86.4,133.8L86.4,133.8z"/>
		</g>
	</g>
	<g>
		<g>
			<path class="st3" d="M86.2,131.1c-5-0.1-10-0.1-15-0.2c-1.8,0-1.8,2.8,0,2.8c5,0.1,10,0.1,15,0.2
				C87.9,133.9,87.9,131.1,86.2,131.1L86.2,131.1z"/>
		</g>
	</g>
	<g>
		<g>
			<path class="st3" d="M55.2,131.1c0,0.3-0.1,0.5-0.1,0.8c-0.1,0.2-0.1,0.4-0.2,0.7c-0.1,0.2-0.2,0.3-0.4,0.4
				c-0.2,0.1-0.4,0.2-0.6,0.3c-0.2,0.1-0.3,0.2-0.2,0.4c0.1,0.2,0.3,0.3,0.4,0.2c0.3-0.1,0.6-0.2,0.8-0.4c0.2-0.2,0.4-0.4,0.6-0.7
				c0.3-0.6,0.4-1.2,0.4-1.8c0-0.2-0.2-0.3-0.3-0.3C55.3,130.8,55.2,130.9,55.2,131.1L55.2,131.1z"/>
		</g>
	</g>
	<g>
		<g>
			<path class="st3" d="M86.8,131c0.1,0.3,0.2,0.6,0.3,0.9s0.2,0.6,0.4,0.8c0.2,0.2,0.4,0.3,0.6,0.4c0.1,0.1,0.2,0.1,0.3,0.2
				s0.1,0.1,0.2,0.1c0.1,0,0.1,0.1,0.1,0.1c-0.1-0.1,0.1,0,0.1,0.1c0.2,0.1,0.3,0.1,0.5,0c0.1-0.1,0.2-0.4,0-0.5
				c-0.2-0.2-0.4-0.3-0.6-0.4c-0.1-0.1-0.2-0.1-0.3-0.2s-0.1-0.1-0.2-0.1c-0.1-0.1,0.1,0.1-0.1,0l-0.1-0.1c-0.1-0.1-0.1-0.1-0.1-0.1
				s-0.1-0.1-0.1-0.2c-0.1-0.1-0.1-0.2-0.2-0.4c-0.1-0.3-0.2-0.5-0.3-0.8c-0.1-0.2-0.3-0.3-0.4-0.2C86.9,130.7,86.8,130.8,86.8,131
				L86.8,131z"/>
		</g>
	</g>
</g>
<text transform="matrix(1 0 0 1 155.7152 123.8349)" class="st0 st4 st5">Furry Friends </text>
</svg>
